# xmcd
#
# Track frame offsets: 
#        150
#        21123
#        38271
#        58569
#        72642
#        91140
#        110088
#        129336
#        148959
#        170982
#        194955
#        221778
#        232551
#        242424
#
# Disc length: 3561 seconds
#
# Revision: 0
# Processed by: cddbd v1.5.2PL0 Copyright (c) Steve Scherf et al.
# Submitted via: ExactAudioCopy v0.95a3
#
DISCID=cc0de70e
DTITLE=Indiana Phoenix - Laugh at the Devil
DYEAR=2008
DGENRE=Blues
TTITLE0=Laugh At The Devil
TTITLE1=I Stand Beneath The Flag
TTITLE2=As Long As It's Blue
TTITLE3=Boogie On
TTITLE4=Heartbreaker
TTITLE5=I Know I Have To Let You Go
TTITLE6=Switchback
TTITLE7=Whip Me Beat Me Make Me Write Bad Cheques
TTITLE8=White Line Fever
TTITLE9=Working For A Living
TTITLE10=Close Your Eyes
TTITLE11=The Horn Shuffle
TTITLE12=Short Blokes Cause All The Strife
TTITLE13=The Great Race
EXTD=
EXTT0=
EXTT1=
EXTT2=
EXTT3=
EXTT4=
EXTT5=
EXTT6=
EXTT7=
EXTT8=
EXTT9=
EXTT10=
EXTT11=
EXTT12=
EXTT13=
PLAYORDER=
